# xmcd
#
# Track frame offsets: 
#        150
#        12534
#        30052
#        48130
#        71508
#        86732
#        104846
#        121670
#        141818
#        158204
#        174044
#
# Disc length: 2604 seconds
#
# Revision: 0
# Processed by: cddbd v1.5.2PL0 Copyright (c) Steve Scherf et al.
# Submitted via: ExactAudioCopy v0.99pb5
#
DISCID=810a2a0b
DTITLE=Larry Stone - Dreams Die Hard
DYEAR=2008
DGENRE=Country
TTITLE0=Padjolie Blues
TTITLE1=Railroad
TTITLE2=Here Today, Gone Tomorrow
TTITLE3=The Ballad of Shorty
TTITLE4=Ride Me Blind
TTITLE5=Honey Don't Win Any Races
TTITLE6=Haselton Blues
TTITLE7=Be Right Here
TTITLE8=Down In Fort Worth
TTITLE9=Down On The Borderline
TTITLE10=Down The Track
EXTD=
EXTT0=
EXTT1=
EXTT2=
EXTT3=
EXTT4=
EXTT5=
EXTT6=
EXTT7=
EXTT8=
EXTT9=
EXTT10=
PLAYORDER=
